<?xml version="1.0" encoding="UTF-8" standalone="no"?>
<svg
   width="256"
   viewBox="0 0 256 256"
   version="1.1"
   height="256"
   id="svg14"
   sodipodi:docname="plasmalogo.svg"
   inkscape:version="1.1.1 (3bf5ae0d25, 2021-09-20, custom)"
   xmlns:inkscape="http://www.inkscape.org/namespaces/inkscape"
   xmlns:sodipodi="http://sodipodi.sourceforge.net/DTD/sodipodi-0.dtd"
   xmlns="http://www.w3.org/2000/svg"
   xmlns:svg="http://www.w3.org/2000/svg">
  <defs
     id="defs5" />
  <sodipodi:namedview
     id="namedview8"
     pagecolor="#000000"
     bordercolor="#666666"
     borderopacity="1.0"
     inkscape:pageshadow="2"
     inkscape:pageopacity="0"
     inkscape:pagecheckerboard="0"
     showgrid="false"
     inkscape:zoom="1.8837767"
     inkscape:cx="48.572636"
     inkscape:cy="94.756454"
     inkscape:window-width="1920"
     inkscape:window-height="1056"
     inkscape:window-x="0"
     inkscape:window-y="0"
     inkscape:window-maximized="1"
     inkscape:current-layer="svg14"
     scale-x="1" />
  <path
     d="M 128,2.5325738 C 116.82946,29.917056 110.04636,47.853828 97.613309,74.425516 105.23547,82.506415 114.60633,91.88512 129.80752,102.51458 113.46536,95.790299 102.32619,89.058178 93.998272,82.051596 78.083489,115.26131 53.131116,162.55083 2.5323805,253.46778 42.289932,230.51506 73.115757,216.35291 101.84,210.94995 c -1.23115,-5.29708 -1.885939,-11.0529 -1.83889,-17.03221 l 0.0314,-1.25468 c 0.63126,-25.47777 13.8877,-45.07032 29.59076,-43.74114 15.69912,1.32916 27.92437,23.07035 27.29312,48.55204 -0.12145,4.79913 -0.67831,9.41005 -1.62323,13.69164 28.41448,5.5598 58.94623,19.65528 98.17448,42.30218 -7.73587,-14.24056 -14.66402,-27.07354 -21.25892,-39.30272 -10.38636,-8.04953 -21.21577,-18.52215 -43.31376,-29.86519 15.18942,3.94829 26.07375,8.51219 34.55063,13.60146 C 156.40665,73.080661 150.98801,56.483647 128,2.5325738 v -3.533e-4 z"
     id="path9"
     style="display:inline;fill:#ff3163;fill-opacity:0.99215686;fill-rule:nonzero;stroke:none;stroke-width:3.92086;stroke-opacity:1" />
</svg>
